/* XPM */
static char *result[] = {
/* columns rows colors chars-per-pixel */
"48 48 17 1 ",
"  c black",
". c #131313",
"X c #1B1B1B",
"o c #272727",
"O c #571C27",
"+ c #5D5D5D",
"@ c #891E2B",
"# c #C42430",
"$ c #8A4836",
"% c #F5555D",
"& c #FFEB57",
"* c gray52",
"= c #B4B4B4",
"- c #F6CA9F",
"; c #C7CFDD",
": c white",
"> c None",
/* pixels */
">>>>>>>>>>>>>>>>>>>>>>>>>>>>>>>>>>>>>>>>>>>>>>>>",
">>>>>>>>>>>>>>>>>>>>>>>>>>>>>>>>>>>>>>>>>>>>>>>>",
">>>>>>>>>>>>>>>>>>>>>>>>>>>>>>>>>>>>>>>>>>>>>>>>",
">>>>>>>>>>>>>>>>>>>>>>>>>>>>>>>>>>>>>>>>>>>>>>>>",
">>>>>>>>>>>>>>>>>>>>>>>>>>>>>>>>>>>>>>>>>>>>>>>>",
">>>>>>>>>>>>>>>>>>>>>>>>>>>>>>>>>>>>>>>>>>>>>>>>",
">>>>>>>>>>>>>>>>>>>>>>>>>>>>>>>>>>>>>>>>>>>>>>>>",
">>>>>>>>>>>>>>>$:::::>>>>>>>>>>>>>>>>>>>>>>>>>>>",
">>>>>>>>>>>>>>>$$;;;::::>>>>>>>>>>>>>>>>>>>>>>>>",
">>>>>>>>>>>>>>>>$;;;;;;::::>>>>>>>>>>>>>>>>>>>>>",
">>>>>>>>>>>>>>>>>$;;;;;;;;:::@@>>>>>>>>>>>>>>>>>",
">>>>>>>>>>>>>>>>>$;;;;;;;;;:::@@>>>>>>>>>>>>>>>>",
">>>>>>>>>>>>>>>>>$$;;;;;;;;;;::@@>>>>>>>>>>>>>>>",
">>>>>>>>>>>>>>>>>>$OOO;;;;;;;;;:@>>>>>>>>>>>>>>>",
">>>>>>>>>>>>>>>>>>$$O@@@@ ;;;;;;:@>>>>>>>>>>>>>>",
">>>>>>>>>>>>>>>>>>O$O@@@     ;;;;:>>>>>>>>>>>>>>",
">>>>>>>>>>>>>>>>>OO$$@@   ..... ;;:>>>>>>>>>>>>>",
">>>>>>>>>>>>>>>>>OOO$@@  ..%%..%%@;:>>>>>>>>>>>>",
">>>>>>>>>>>>>>>>OOOO$@@  ..%%..%%@>>:>>>>>>>>>>>",
">>>>>>>>>>>>>>>>OOOO$$@ .........@>>>>>>>>>>>>>>",
">>>>>>>>>>>>>>>OOOOOO$@@.........@>>>>>>>>>>>>>>",
">>>>>>>>>>>>>>>OOOOOO$$@........@@>>>>>>>>>>>>>>",
">>>>>>>>>>>>>>>>OOOOOO$@@......O@>>>>>>>>>>>>>>>",
">>>>>>>>>>>>>>>>>>OOOO$@@@@@@@OO>>>>>>>>>>>>>>>>",
">>>>>>>>>>>>>>>>>>>>OO$$@OOOOOO>>>>>>>>>>>>>>>>>",
">>>>>>>>>>>>>>>>>>>>>OO$@@OOO>>>>>>>>>>>>>>>>>>>",
">>>>>>>>>>>>>>>>>>>>>O@$$@O@OO>>>>>>>>>>>>>>>>>>",
">>>>>>>>>>>>>>>>>>>>OOO@$OOO@O>>>>>>>>>>>>>>>>>>",
">>>>>>>>>>>>>>>>>>>OOOOO$$XO@@@>>>>>>>>>>>>>>>>>",
">>>>>>>>>>>>>>>>>>OOO@@@@--O@@@>>>>>>>>>>>>>>>>>",
">>>>>>>>>>>>>>>>>OOO@@@@@--@@@@>>>>>>>>>>>>>>>>>",
">>>>>>>>>>>>>>>>>OOO@@@@X--@@@@>>>>>>>>>>>>>>>>>",
">>>>>>>>>>>>>>>>OOO@@@@@XX$@@@@>>>>>>>>>>>>>>>>>",
">>>>>>>>>>>>>>>OOO@@@@@XXX$$@@@O>>>>>>>>>>>>>>>>",
">>>>>>>>>>>>>>OOOO@@@@@XXXX$@@OO>>>>>>>>>>>>>>>>",
">>>>>>>>>>>>>>OOOO@@@@XXXX@$$@OO>>>>>>>>>>>>>>>>",
">>>>>>>>>>>>>>>>OOOO@oXXXX@O$OOO>>>>>>>>>>>>>>>>",
">>>>>>>>>>>>>>>>>OOOO*XXXXOO$OO>>>>>>>>>>>>>>>>>",
">>>>>>>>>>>>>>>>>>>===>>>>===>>>>>>>>>>>>>>>>>>>",
">>>>>>>>>>>>>>>>>>>==>>>>>==>>>>>>>>>>>>>>>>>>>>",
">>>>>>>>>>>>>>>>>>>>>>>>>>>>>>>>>>>>>>>>>>>>>>>>",
">>>>>>>>>>>>>>>>>>>>>>>>>>>>>>>>>>>>>>>>>>>>>>>>",
">>>>>>>>>>>>>>>>>>>>>>>>>>>>>>>>>>>>>>>>>>>>>>>>",
">>>>>>>>>>>>>>>>>>>>>>>>>>>>>>>>>>>>>>>>>>>>>>>>",
">>>>>>>>>>>>>>>>>>>>>>>>>>>>>>>>>>>>>>>>>>>>>>>>",
">>>>>>>>>>>>>>>>>>>>>>>>>>>>>>>>>>>>>>>>>>>>>>>>",
">>>>>>>>>>>>>>>>>>>>>>>>>>>>>>>>>>>>>>>>>>>>>>>>",
">>>>>>>>>>>>>>>>>>>>>>>>>>>>>>>>>>>>>>>>>>>>>>>>"
};
