/* XPM */
static char *result[] = {
/* columns rows colors chars-per-pixel */
"48 48 12 1 ",
"  c #32222E",
". c #9C0565",
"X c #B53772",
"o c #FF2245",
"O c #D50964",
"+ c #E97461",
"@ c #676CAD",
"# c #FB9585",
"$ c #A096D1",
"% c #C3CBDB",
"& c gray99",
"* c None",
/* pixels */
"************************************************",
"************************************************",
"************************************************",
"************************************************",
"************************************************",
"************************************************",
"************************************************",
"************************************************",
"************************************************",
"************************************************",
"************************************************",
"************************************************",
"**************************@@@@@*****************",
"**********************@@@@%&&&%@****************",
"*********************@%%&&&&&&&@****************",
"********************@$%&&&&&&&&@****************",
"******************** %%%&&&&&&%@****************",
"******************* $%%$$$$%%$@*****************",
"******************* $%&+##+$$+X*****************",
"******************* @$&#%&####@*****************",
"****************** X+#%#+%&##&@*****************",
"***************** .X##@##  ##  *****************",
"**************** ..X+#+##+@@$$X.****************",
"****************.oo.XX+++@%&&%@.****************",
"****************.ooO..X+@%&&&&%@****************",
"****************.OOOO..+@%&%$%&@****************",
"****************.OO.O...@%%$%@%@****************",
"**************** .O.OO..@%$%&%$.****************",
"**************** .. OOO.@@%&&&$.****************",
"***************** . OOO.$@%&&&$ ****************",
"******************  ..O.%$@%&%$*****************",
"******************* OOO.%.$@%$ *****************",
"******************* ..... @@$@ *****************",
"******************** @@@ *     *****************",
"********************     ***********************",
"************************************************",
"************************************************",
"************************************************",
"************************************************",
"************************************************",
"************************************************",
"************************************************",
"************************************************",
"************************************************",
"************************************************",
"************************************************",
"************************************************",
"************************************************"
};
