/* XPM */
static char *result[] = {
/* columns rows colors chars-per-pixel */
"64 64 17 1 ",
"  c black",
". c #14161F",
"X c #252A32",
"o c #353A4A",
"O c #EE1C24",
"+ c #957757",
"@ c #DAAF1C",
"# c #CEAF47",
"$ c #FCE945",
"% c #66349E",
"& c #6B7A91",
"* c #9F51F7",
"= c #00B9FF",
"- c #DC8BF7",
"; c #F7CEF7",
": c gray99",
"> c None",
/* pixels */
">>>>>>>>>>>>>>>>>>>>>>>>>>>>>>>>>>>>>>>>>>>>>>>>>>>>>>>>>>>>>>>>",
">>>>>>>>>>>>>>>>>>>>>>>>>>>>>>>>   >>>>>>>>>>>>>>>>>>>>>>>>>>>>>",
">>>>>>>>>>>>>>>>>>>>>>>>>>>>>>>   >>>>>>>>>>>>>>>>>>>>>>>>>>>>>>",
">>>>>>>>>>>>>>>>>>>>>>>>>>>>>>     >>>>>>>>>>>>>>>>>>>>>>>>>>>>>",
">>>>>>>>>>>>>>>>>>>>>>>>>>>>>  $$  >>>>>>>>>>>>>>>>>>>>>>>>>>>>>",
">>>>>>>>>>>>>>>>>>>>>>>>>>>>  #..$  >>>>>>>>>>>>>>>>>>>>>>>>>>>>",
">>>>>>>>>>>>>>>>>>>>>>>>>>>> #....$ >>>>>>>>>>>>>>>>>>>>>>>>>>>>",
">>>>>>>>>>>>>>>>>>>>>>>>$>>>#.-..-.$>>>$>>>>>>>>>>>>>>>>>>>>>>>>",
">>>>>>>>>>>>>>>>>>>>>>>X$$>>#......$>>$$.>>>>>>>>>>>>>>>>>>>>>>>",
">>>>>>>>>>>>>>>>>>>>>>>XX$$>#......$>$$.X>>>>>>>>>>>>>>>>>>>>>>>",
">>>>>>>>>>>>>>>>>>>>>>...X$$ #....$ $$.XXX>>>>>>>>>>>>>>>>>>>>>>",
">>>>>>>>>>>>>>>>>>>>>.....X$  $$$$  $..XXXX>>>>>>>>>>>>>>>>>>>>>",
">>>>>>>>>>>>>>>>>>>>>....XX$+      #$$.XXXX>>>>>>>>>>>>>>>>>>>>>",
">>>>>>>>>>>>>>>>>>>>>...XX#  +    #  #..XXX>>>>>>>>>>>>>>>>>>>>>",
">>>>>>>>>>>>>>>>>>>>>XXXX##   +$$#   ##....>>>>>>>>>>>>>>>>>>>>>",
">>>>>>>>>>>>>>>>>>>>>##X## >  #=O$  > ##.#$>>>>>>>>>>>>>>>>>>>>>",
">>>>>>>>>>>>>>>>>>>>>>### >>o  #$  o>> ###>>>>>>>>>>>>>>>>>>>>>>",
">>>>>>>>>>>>>>>>>>>>>>    >>&o    o&>>    >>>>>>>>>>>>>>>>>>>>>>",
">>>>>>>>>>>>>>>>>>>>>>.ooo####$$$$$$$$ooo.>>>>>>>>>>>>>>>>>>>>>>",
">>>>>>>>>>>>>>>>>>>>>.ooo>#**********$>ooo.>>>>>>>>>>>>>>>>>>>>>",
">>>>>>>>>>>>>>>>>>>>>o..@oo#*------*$oo@..o>>>>>>>>>>>>>>>>>>>>>",
">>>>>>>>>>>>>>>>>>>>ooo@oo&o**-**-**o&oo@ooo>>>>>>>>>>>>>>>>>>>>",
">>>>>>>>>>>>>>>>>>>>>oo@ooo&#*----*$&ooo@oo>>>>>>>>>>>>>>>>>>>>>",
">>>>>>>>>>>>>>>>>>>>>>o@oo&o#******$o&oo@o>>>>>>>>>>>>>>>>>>>>>>",
">>>>>>>>>>>>>>>>>>>>>>>>@oo&.#*--*$.&oo@>>>>>>>>>>>>>>>>>>>>>>>>",
">>>>>>>>>>>>>>>>>>>>>>>>>>>..#****$..>>>>>>>>>>>>>>>>>>>>>>>>>>>",
">>>>>>>>>>>>>>>>>>>>>>>>>>>...#**$...>>>>>>>>>>>>>>>>>>>>>>>>>>>",
">>>>>>>>>>>>>>>>>>>>>>>>>>>...##$$...>>>>>>>>>>>>>>>>>>>>>>>>>>>",
">>>>>>>>>>>>>>>>>>>>>>>>>>.....#$.....>>>>>>>>>>>>>>>>>>>>>>>>>>",
">>>>>>>>>>>>>>>>>>>>>>>>>.......$......>>>>>>>>>>>>>>>>>>>>>>>>>",
">>>>>>>>>>>>>>>>>>>>>>>>>.......$......>>>>>>>>>>>>>>>>>>>>>>>>>",
">>>>>>>>>>>>>>>>>>>>>>>>.......$$.......>>>>>>>>>>>>>>>>>>>>>>>>",
">>>>>>>>>>>>>>>>>>>>>%>>.......$........>>>>>>>>>>>>>>>>>>>>>>>>",
">>>>>>>>>>>>>>>>>>>>>>>........$.........>>>>>>>>>>>>>>>>>>>>>>>",
">>>>>>>>>>>>>>>>>>>>>>>........$$........>>>>>>>>>>>>>>>>>>>>>>>",
">>>>>>>>>>>>>>>>>>>>>>..........$.........>>>>>>>>>>>>>>>>>>>>>>",
">>>>>>>>>>>>>>>>>>>>>>.......*..$.........>>>>>>>>>>>>>>>>>>>>>>",
">>>>>>>>>>>>>>>>>>>>>..........$$..........>>>>>>>>>>>>>>>>>>>>>",
">>>>>>>>>>>>>>>>>>>>>..........$...........>>>>>>>>>>>>>>>>>>>>>",
">>>>>>>>>>>>>>>>>>>>.%%........$.....**%....>>>>>>>>>>>>>>>>>>>>",
">>>>>>>>>>>>>>>>>>>>%%%........$.....**%.....>>>>>>>>>>>>>>>>>>>",
">>>>>>>>>>>>>>>>%%>.%%**.......$$............>>>>>>>>>>>>>>>>>>>",
">>>>>>>>>>>>>>>>>>>.-**-........$............>>>>>>>>>>>>>>>>>>>",
">>>>>>>>>>>>>>>>>>>$---.....***.$...........$>>>>>>>>>>>>>>>>>>>",
">>>>>>>>>>>>>>>>>>>>$--....****.$.........$$>>>>>>>>>>>>>>>>>>>>",
">>>>>>>>>>>>>>>>>>>>>-$$$$.***--$$$....$$$>>>>>>>>>>>>>>>>>>>>>>",
">>>>>>>>>>>>>>>>>>>>>>>>>$*-*--;>>$$$$$$>>>>>>>>>>>>>>>>>>>>>>>>",
">>>>>>>>>>>>>>>>>>>>>>>>>>*--;;-*>>>>>>>>>>>>>>>>>>>>>>>>>>>>>>>",
">>>>>>>>>>>>>>>>>>>>>>>>>>>>;;->>>>>>>>>>>>>>>>>>>>>>>>>>>>>>>>>",
">>>>>>>>>>>>>>>>>*>>>>>>>>>>;;>>>>>>>>>***>>>%%*>>>>>>>>>>>>>>>>",
">>>>>>>>>>>>>>>>--*>>**>>>>>>;->>>>>>>*-:;*>>>-->>>>>>>>>>>>>>>>",
">>>>>>>>>>>>>>>>--*****->>>--::--->>>--;::->>>>>>>>>>>>>>>>>>>>>",
">>>>>>>>>>>>>>>>******--;;;::::;--->--::::;*>>>>>>>>>>>>>>>>>>>>",
">>>>>>>>>>>>>>>>>*%%*--:;;:::::::-;;;;::::;;>>>**>>>>>>>>>>>>>>>",
">>>>>>>>>>>>>>>>>>>%*-:::;::::::::;;;;::::;----*>>>>>>>>>>>>>>>>",
">>>>>>>>>>>>>>>>>>>>>-;:::::::::::::;:::::::--->>>>>>>>>>>>>>>>>",
">>>>>>>>>>>>>>>>>>>>>>>::::::::::::::::::::->>>>>>>>>>>>>>>>>>>>",
">>>>>>>>>>>>>>>>>>>>>>>>>:::>>>:::::::::>>>>>>>>>>>>>>>>>>>>>>>>",
">>>>>>>>>>>>>>>>>>>>>>>>>>>>>>>>>>>>>>>>>>>>>>>>>>>>>>>>>>>>>>>>",
">>>>>>>>>>>>>>>>>>>>>>>>>>>>>>>>>>>>>>>>>>>>>>>>>>>>>>>>>>>>>>>>",
">>>>>>>>>>>>>>>>>>>>>>>>>>>>>>>>>>>>>>>>>>>>>>>>>>>>>>>>>>>>>>>>",
">>>>>>>>>>>>>>>>>>>>>>>>>>>>>>>>>>>>>>>>>>>>>>>>>>>>>>>>>>>>>>>>",
">>>>>>>>>>>>>>>>>>>>>>>>>>>>>>>>>>>>>>>>>>>>>>>>>>>>>>>>>>>>>>>>",
">>>>>>>>>>>>>>>>>>>>>>>>>>>>>>>>>>>>>>>>>>>>>>>>>>>>>>>>>>>>>>>>"
};
