/* XPM */
static char *result[] = {
/* columns rows colors chars-per-pixel */
"48 48 10 1 ",
"$ c #197B30",
", c #874A0D",
"1 c #A0410D",
"2 c #A04D1F",
"4 c #A0611F",
"7 c #00A651",
"9 c #FF8800",
"0 c #FFB200",
"q c #FFF200",
"c c None",
/* pixels */
"cccccccccccccccccccccccccccccccccccccccccccccccc",
"cccccccccccccccccccccccccccccccccccccccccccccccc",
"cccccccccccccccccccccccccccccccccccccccccccccccc",
"cccccccccccccccccccccccccccccccccccccccccccccccc", 
"cccccccccccccccccccccccccccccccccccccccccccccccc",
"cccccccccccccccccccccccccccccccccccccccccccccccc",
"cccccccccccccccccccccccccccccccccccccccccccccccc",
"cccccccccccccccccccccccccccccccccccccccccccccccc",
"cccccccccccccccccc999999999999cccccccccccccccccc",
"cccccccccccccccccc9999qqqqqq99cccccccccccccccccc",
"cccccccccccccccccc999qqqqqqq99cccccccccccccccccc",
"cccccccccccccccccc999qq000qq99cccccccccccccccccc",
"cccccccccccccccccc999qq000qq99cccccccccccccccccc",
"cccccccccccccccccc999qq000qq99cccccccccccccccccc",
"cccccccccccccccccc999qq000qq99cccccccccccccccccc",
"ccccccccccc9999999999qq000qq999999999ccccccccccc",
"ccccccccccc999qqqqqqqq0000qqqqqqqqq99ccccccccccc",
"ccccccccccc999qqqqqq0000qqqqqqqqqqq99ccccccccccc",
"ccccccccccc999qq00000000000000000qq99ccccccccccc",
"ccccccccccc999qq00000000000000000qq99ccccccccccc",
"ccccccccccc999qq00000000000000000qq99ccccccccccc",
"ccccccccccc9999999999qq00qqq999999999ccccccccccc",
"cccccccccccccccccc999qqq00qq99cccccccccccccccccc",
"cccccccccccccccccc999qqq00qq99cccccccccccccccccc",
"cccccccccccccccccc999qqq00qq99cccccccccccccccccc",
"cccccccccccccccccc999qqq00qq99cccccccccccccccccc",
"cccccccccccccccccc999qqq00qq99cccccccccccccccccc",
"cccccccccccccccccc999qqq00qq99cccccccccccccccccc",
"cccccccccccccccccc999qqq00qq99cccccccccccccccccc",
"cccccccccccccccccc999qqq00qq99cccccccccccccccccc",
"cccccccccccccccccc999qqq00qq99cccccccccccccccccc",
"cccccccccccccccccc999qqq00qq99cccccccccccccccccc",
"cccccccccccccccccc999qqq00qq99cccccccccccccccccc",
"cccccccccccccccccc999qqq00qq99cccccccccccccccccc",
"cccccccccccccccccc999qqq00qq99cccccccccccccccccc",
"cccccccccccccccccc999qqq00qq99cccccccccccccccccc",
"cccccccccccccccccc999qqq00qq99c7cccccccccccccccc",
"cccccccccccccccc79222qq000qq919$22cccccccccccccc",
"cccccccccc222cc1$$22411200001221441221cccccccccc",
"cccccccc11112144,,112211,,1141221,111411cccccccc",
"cccccccccccccccccccccccccccccccccccccccccccccccc",
"cccccccccccccccccccccccccccccccccccccccccccccccc",
"cccccccccccccccccccccccccccccccccccccccccccccccc",
"cccccccccccccccccccccccccccccccccccccccccccccccc",
"cccccccccccccccccccccccccccccccccccccccccccccccc",
"cccccccccccccccccccccccccccccccccccccccccccccccc",
"cccccccccccccccccccccccccccccccccccccccccccccccc",
"cccccccccccccccccccccccccccccccccccccccccccccccc"
};
