/* XPM */
static char *result[] = {
/* columns rows colors chars-per-pixel */
"48 48 10 1 ",
"  c #793D4E",
". c #B53772",
"X c #B15C51",
"o c #D77E4B",
"O c #017687",
"+ c #1664C5",
"@ c #00C19A",
"# c #008DF0",
"$ c gray99",
"% c None",
/* pixels */
"%%%%%%%%%%%%%%%%%%%%%%%%%%%%%%%%%%%%%%%%%%%%%%%%",
"%%%%%%%%%%%%%%%%%%%%%%%%%%%%%%%%%%%%%%%%%%%%%%%%",
"%%%%%%%%%%%%%%%%%%%%%%%%%%%%%%%%%%%%%%%%%%%%%%%%",
"%%%%%%%%%%%%%%%%%%%%%%%%%%%%%%%%%%%%%%%%%%%%%%%%",
"%%%%%%%%%%%%%%%%%%%%%%%%@%%%%%%%%%%%%%%%%%%%%%%%",
"%%%%%%%%%%%%%%%%%%%%%%%@%%%%%%@%%%%%%%%%%%%%%%%%",
"%%%%%%%%%%%%%%%%%%%%%%%@%%%%%@%%%%%%@%%%%%%%%%%%",
"%%%%@%%%%%%%%%@%O%%%%@@O@%%%@@@%%%@O@@%%@%%%%%%%",
"%%%@O@@%%%%%@@@OO@@@@@@O@@@@OO@@@@@OOO@@%%O@%%%%",
"%%@%%@OO@@@@@OO  O@@@@O OO@@O OOOOO  O@@OO@@%@@%",
"%%%@@O OOOOOO  XX OOOO X. OO X.  .XX OOO  O@@%%%",
"%%%@@OO X  . ...XoXX.  .XXX  XXXXXXXoX  .XO@@@%%",
"@%@@O .XXXXXXXXoooXXXXXooooooooXX. .oXXXXX OO@@%",
"%@OO  XX. .oXXoooooooooooXX.ooo.    .XoooX.  O@%",
"%@@O.Xo. XXoooooooooooooo X. .ooooo..XXooooX O@%",
"%%@OXX $$$$$$$$$$$$$$$$$$$$$$$$$$$$$$$$$$ooo O@%",
"%@O.o$$+++++++++++++++++++++++++++++++++++$o.O@@",
"%@Oo$++++++++++++++++++++++++++++++++++++++$oO@@",
"%@O$+++++++++++++++++++++++++++++++++++++++O@@%@",
"%@@O++++#####+++++++++##########++++++###+++O@%%",
"%@%@@O+######++++######+++++###+++++++##+++O@@%%",
"%%%@@O#####################################O@@%%",
"%%@@O######################################O@@@%",
"%%%@@O####################################$ O@@%",
"%%@O $####################################$ O@@%",
"%@OO $####################################$ OO@O",
"%%@@O $####################################$O@@%",
"%%%@O$######################################O@%%",
"%%%@O#######################################O@%%",
"%%@@O##################+#++++###############O@%%",
"%%%@O##################+++++++##############O@%%",
"%%%@O##################+++++++##############O@@%",
"%@%@@O$######+#+++######+#++++##############O@@%",
"%%OOO $#####+++++#########################$ O@@%",
"%%@O  $######+#+++########################$O@@%@",
"%%%@OOO###################################OO@@%%",
"%@@O@@O##################################OO@@@%%",
"%%%@@@@O#OOOO#########OOO#####OO####OOO@@O@%@%%%",
"%%%%@@OO@@@@O##OOOOO#O@@OO##O@@O##OO@@@%@@%%@%%%",
"%%%%%@O@@@@@@@OO@@@@@@O@@@@@@OO@@@OO@@@%%%%O%%%%",
"%%%%%@@@%%%%%%@@@%%%%@@@%%%%%@@@@%%%@%%%%%%%%%%%",
"%%%%%%@@%%%%%%%@%%%%%%@%%%%%%%%%%%%@%%%%%%%%%%%%",
"%%%%%%%%%%%%%%%%%%%@%%%%%%%%%%%%%%@%%%%%%%%%%%%%"
"%%%%%%%%%%%%%%%%%%%%%%%%%%%%%%%%%%%%%%%%%%%%%%%%",
"%%%%%%%%%%%%%%%%%%%%%%%%%%%%%%%%%%%%%%%%%%%%%%%%",
"%%%%%%%%%%%%%%%%%%%%%%%%%%%%%%%%%%%%%%%%%%%%%%%%",
"%%%%%%%%%%%%%%%%%%%%%%%%%%%%%%%%%%%%%%%%%%%%%%%%",
"%%%%%%%%%%%%%%%%%%%%%%%%%%%%%%%%%%%%%%%%%%%%%%%%",
};
