/* XPM */
static char *result[] = {
/* columns rows colors chars-per-pixel */
"48 48 13 1 ",
"  c #32222E",
"X c #793D4E",
"@ c #B15C51",
"# c #D77E4B",
"$ c #FFB35B",
". c #45064B",
"% c #00C19A",
"& c #6DF7B1",
"o c #9C0565",
"+ c #D50964",
"O c #FF2245",
"* c #FF8F8F",
"= c None",
/* pixels */
"=======================+++++====================",
"===================+++%%%%%%+===================",
"==================+***%%&&&%%++=================",
"==============++=+****&&&&&&%**++===============",
"============+&&%+$%&&&&&&&&&&&**%+==============",
"===========+$$$&$$%%%&***&&***&&&$%%+===========",
"==========+%****&%$$$&&&*&&&&&*%&&%$$$+=========",
"========+$%%%**&&&%%%&&&&%&&&&&$$$$$++++========",
"=====+$$$$$%$$%%&&&&&&&%%%%%%$$&&$$&&%$++++=====",
"====+$&&$$$$$%%&&&&&&&&&&%%%%&&&***&&$$$$&$+====",
"====+++&&&$$$$%&&***&&&&&&&&&%&&&****$$$&&&$$+==",
"===+***&&&$$$$$&***&&&&*&&&&&&$&&&***%$%%%$$$+==",
"==+%*&&&&&$$%%$**&&&&&***&&&**&%$%$$$%%%%$$$$+==",
"=+&&&&**&&&$$$%%%%%%%***&&***%%$$$%%%%&&&&&***+=",
"+%&&&***&&&&%%$$%%$$$%%%*&&&%%%%$$%%%%&&&&&&**+=",
"+$%%%%$*&&&**&&&&&%%%$$$$%%%%%$$%%%$&&&&&***&&++",
"+$%$$$%%&&******&&&&&&$$&%%%$$$$$$&&&&&****$$+$+",
"=+$$+%%%%$****&&&&&&&&&&$$$$$$$&&&&&&&****%%$$+=",
"=++$%%%%%$****&&&&&&*&&&&&&&&&&&&&*&&&&*$**%%$$+",
"+$$$$$%%$$%%%&&&*****&&&&&%$%&******&&&%%$$$$+==",
"==++$$$$$$$%%&&&&&******&%&%$$$%*******&%$$$$+++",
"+****&&&&&$$$$%%$******%%$$$%&&%%%%%%%%%%&&&&&&+",
"+%**&&&&&$$$$$%%&&%***&%$$%%&%%%$$$%%$$$%&&&&&+=",
"+%%&&**&&&&&$$$$%%$$$%$%%%$$$%%%%%%%$&*&&&*****+",
"=+$&&***&&&&&&&%%$$$%%%%%%&&&%%&&&%&&&***&&***%+",
"+$%&*****&&&&&&&&&&$$$%%%&&&&&&&&&&&&&****&&*%%+",
"+$%%%%%*&&&&&&&&&&&&&&&%$%%&&&&&&&**&&&**%%%$%$+",
"+$$$+$%&&&&**&&&&&&&**&&&$$$%%&*&&&&**&&&%&&%$$+",
"=+$$%%%$%****%%%&&&%****&$$$%&&**%&&***%%&&$$$+=",
"==+$$%%$$**%%%%&&%%**%%$$$%%&%**%&&&%%%%%$++++==",
"===++$$+$%%%&&%%%&&&%%%%%%%&&%%%%%&&&%%$%%$$+===",
"======+++$$%%%$+$$%&&%%$$$&&&&&&$$+$%%%%%$$+====",
"=========+++++$$$+$$$$$+$%%&%%%%$$+++$$$++======",
"==============++++$$$$$+$$$%%%$$$$+==+++========",
"================== +++++.+$$$$$$$+==============",
"================== ...X...+++++++===============",
"================== o.oXX....... ================",
"==========@@=@@@@@ o.oXXX..XX..X.@@@============",
"==========@@@@@@@ oOoooXo..XX.ooo @@@@==========",
"==========@@@@@@ OOOoooo..XX.Xoo.@@@@@@=========",
"=======@@@@@@  OoXX. OoooXXoooX.oo. @@@@@#======",
"======@@@@@@@ XX...  OoXoOX.ooooX..oX @@@#======",
"======@@@@@@@@@ ooo....OOX.@..XXo@@@@@@@@@======",
"=======@@@@@@@@ XXo.@@@XOOX.@@@..XX@@@@@@@======",
"=========@@@@@@@@@@@@@@.oX@@@@@@@@@@@@==========",
"==========@@@@@@@@@@@@@@o.@@@@@@@@@@@===========",
"===========@@@@@@@@@@@@@o@@@@@@@@@@@============",
"====================@@@@@======================="
};
